<?xml version="1.0" encoding="utf-8" standalone="no"?>
<!DOCTYPE svg PUBLIC "-//W3C//DTD SVG 1.1//EN"
  "http://www.w3.org/Graphics/SVG/1.1/DTD/svg11.dtd">
<svg xmlns:xlink="http://www.w3.org/1999/xlink" width="612.0375pt" height="411.276312pt" viewBox="0 0 612.0375 411.276312" xmlns="http://www.w3.org/2000/svg" version="1.1">
 <metadata>
  <rdf:RDF xmlns:dc="http://purl.org/dc/elements/1.1/" xmlns:cc="http://creativecommons.org/ns#" xmlns:rdf="http://www.w3.org/1999/02/22-rdf-syntax-ns#">
   <cc:Work>
    <dc:type rdf:resource="http://purl.org/dc/dcmitype/StillImage"/>
    <dc:date>2026-07-05T11:26:24.793957</dc:date>
    <dc:format>image/svg+xml</dc:format>
    <dc:creator>
     <cc:Agent>
      <dc:title>Matplotlib v3.10.9, https://matplotlib.org/</dc:title>
     </cc:Agent>
    </dc:creator>
   </cc:Work>
  </rdf:RDF>
 </metadata>
 <defs>
  <style type="text/css">*{stroke-linejoin: round; stroke-linecap: butt}</style>
 </defs>
 <g id="figure_1">
  <g id="patch_1">
   <path d="M 0 411.276312 
L 612.0375 411.276312 
L 612.0375 0 
L 0 0 
z
" style="fill: #ffffff"/>
  </g>
  <g id="axes_1">
   <g id="patch_2">
    <path d="M 60.12 377.336 
L 596.376 377.336 
L 596.376 115.976 
L 60.12 115.976 
z
" style="fill: #ffffff"/>
   </g>
   <g id="matplotlib.axis_1">
    <g id="xtick_1">
     <g id="line2d_1"/>
     <g id="text_1">
      <!-- Espresso -->
      <g style="fill: #64748b" transform="translate(133.655944 392.436) scale(0.1 -0.1)">
       <defs>
        <path id="Geist-Regular-45" d="M 589 4544 
L 3437 4544 
L 3437 4019 
L 1126 4019 
L 1126 2534 
L 3360 2534 
L 3360 2022 
L 1126 2022 
L 1126 525 
L 3488 525 
L 3488 0 
L 589 0 
L 589 4544 
z
" transform="scale(0.015625)"/>
        <path id="Geist-Regular-73" d="M 2470 2349 
Q 2413 2630 2169 2800 
Q 1926 2970 1626 2970 
Q 1331 2970 1132 2826 
Q 934 2682 934 2445 
Q 941 2061 1754 1888 
Q 2413 1760 2749 1539 
Q 3085 1318 3085 864 
Q 3085 403 2694 163 
Q 2304 -77 1766 -77 
Q 1158 -77 748 233 
Q 339 544 301 1062 
L 851 1101 
Q 902 787 1142 604 
Q 1382 422 1766 422 
Q 2074 422 2304 534 
Q 2534 646 2534 890 
Q 2534 986 2489 1066 
Q 2445 1146 2397 1194 
Q 2349 1242 2237 1286 
Q 2125 1331 2064 1347 
Q 2003 1363 1852 1395 
Q 1702 1427 1658 1440 
Q 1427 1491 1280 1536 
Q 1133 1581 944 1661 
Q 755 1741 649 1833 
Q 544 1926 467 2076 
Q 390 2227 390 2413 
Q 384 2893 742 3181 
Q 1101 3469 1683 3469 
Q 2195 3469 2566 3171 
Q 2938 2874 3021 2387 
L 2470 2349 
z
" transform="scale(0.015625)"/>
        <path id="Geist-Regular-70" d="M 544 -960 
L 544 3392 
L 1018 3392 
L 1037 2874 
Q 1325 3469 2086 3469 
Q 2803 3469 3177 2963 
Q 3552 2458 3552 1696 
Q 3552 934 3177 428 
Q 2803 -77 2086 -77 
Q 1357 -77 1069 486 
L 1069 -960 
L 544 -960 
z
M 1260 2598 
Q 1011 2227 1011 1696 
Q 1011 1165 1260 797 
Q 1510 429 1997 429 
Q 2496 429 2742 790 
Q 2989 1152 2989 1696 
Q 2989 2240 2739 2605 
Q 2490 2970 1997 2970 
Q 1510 2970 1260 2598 
z
" transform="scale(0.015625)"/>
        <path id="Geist-Regular-72" d="M 544 3392 
L 1005 3392 
L 1024 2765 
Q 1190 3392 1837 3392 
L 2163 3392 
L 2163 2931 
L 1837 2931 
Q 1069 2931 1069 2022 
L 1069 0 
L 544 0 
L 544 3392 
z
" transform="scale(0.015625)"/>
        <path id="Geist-Regular-65" d="M 723 406 
Q 301 890 301 1696 
Q 301 2502 723 2985 
Q 1146 3469 1850 3469 
Q 2458 3469 2870 3043 
Q 3283 2618 3322 1766 
L 3328 1530 
L 858 1530 
Q 896 1005 1152 713 
Q 1408 422 1850 422 
Q 2131 422 2361 576 
Q 2592 730 2707 998 
L 3270 960 
Q 3123 486 2732 204 
Q 2342 -77 1850 -77 
Q 1146 -77 723 406 
z
M 870 1997 
L 2752 1997 
Q 2682 2502 2438 2736 
Q 2195 2970 1850 2970 
Q 1446 2970 1190 2714 
Q 934 2458 870 1997 
z
" transform="scale(0.015625)"/>
        <path id="Geist-Regular-6f" d="M 2976 406 
Q 2554 -77 1850 -77 
Q 1146 -77 723 406 
Q 301 890 301 1696 
Q 301 2502 723 2985 
Q 1146 3469 1850 3469 
Q 2554 3469 2976 2985 
Q 3398 2502 3398 1696 
Q 3398 890 2976 406 
z
M 1113 2630 
Q 851 2291 851 1696 
Q 851 1101 1113 761 
Q 1376 422 1850 422 
Q 2317 422 2582 761 
Q 2848 1101 2848 1696 
Q 2848 2291 2582 2630 
Q 2317 2970 1850 2970 
Q 1376 2970 1113 2630 
z
" transform="scale(0.015625)"/>
       </defs>
       <use xlink:href="#Geist-Regular-45"/>
       <use xlink:href="#Geist-Regular-73" transform="translate(60.199997 0)"/>
       <use xlink:href="#Geist-Regular-70" transform="translate(113.099991 0)"/>
       <use xlink:href="#Geist-Regular-72" transform="translate(173.299988 0)"/>
       <use xlink:href="#Geist-Regular-65" transform="translate(211.799973 0)"/>
       <use xlink:href="#Geist-Regular-73" transform="translate(268.499969 0)"/>
       <use xlink:href="#Geist-Regular-73" transform="translate(321.399963 0)"/>
       <use xlink:href="#Geist-Regular-6f" transform="translate(374.299957 0)"/>
      </g>
      <!-- machines -->
      <g style="fill: #64748b" transform="translate(132.660631 402.456) scale(0.1 -0.1)">
       <defs>
        <path id="Geist-Regular-6d" d="M 544 3392 
L 1024 3392 
L 1043 2816 
Q 1286 3469 2022 3469 
Q 2387 3469 2643 3280 
Q 2899 3091 3008 2752 
Q 3238 3469 4045 3469 
Q 4557 3469 4838 3129 
Q 5120 2790 5120 2182 
L 5120 0 
L 4595 0 
L 4595 2029 
Q 4595 2496 4422 2749 
Q 4250 3002 3936 3002 
Q 3539 3002 3318 2746 
Q 3098 2490 3098 2022 
L 3098 0 
L 2573 0 
L 2573 2029 
Q 2573 2483 2397 2742 
Q 2221 3002 1914 3002 
Q 1523 3002 1296 2742 
Q 1069 2483 1069 2029 
L 1069 0 
L 544 0 
L 544 3392 
z
" transform="scale(0.015625)"/>
        <path id="Geist-Regular-61" d="M 358 2394 
Q 461 2893 832 3181 
Q 1203 3469 1741 3469 
Q 2400 3469 2752 3101 
Q 3104 2733 3104 2048 
L 3104 685 
Q 3104 467 3315 467 
L 3450 467 
L 3450 0 
L 3226 0 
Q 2931 0 2755 121 
Q 2579 243 2586 531 
Q 2464 275 2182 99 
Q 1901 -77 1517 -77 
Q 998 -77 649 182 
Q 301 442 301 883 
Q 301 1139 387 1315 
Q 474 1491 666 1603 
Q 858 1715 1056 1779 
Q 1254 1843 1574 1907 
L 2579 2099 
Q 2573 2970 1741 2970 
Q 1075 2970 915 2349 
L 358 2394 
z
M 851 883 
Q 851 666 1040 525 
Q 1229 384 1587 390 
Q 2029 390 2310 697 
Q 2592 1005 2592 1574 
L 2592 1632 
L 1779 1491 
Q 1242 1395 1101 1318 
Q 851 1190 851 883 
z
" transform="scale(0.015625)"/>
        <path id="Geist-Regular-63" d="M 2707 2259 
Q 2650 2586 2410 2778 
Q 2170 2970 1850 2970 
Q 1376 2970 1113 2630 
Q 851 2291 851 1696 
Q 851 1101 1113 761 
Q 1376 422 1850 422 
Q 2182 422 2428 630 
Q 2675 838 2733 1197 
L 3290 1165 
Q 3206 602 2803 262 
Q 2400 -77 1850 -77 
Q 1146 -77 723 406 
Q 301 890 301 1696 
Q 301 2502 723 2985 
Q 1146 3469 1850 3469 
Q 2387 3469 2790 3149 
Q 3194 2829 3258 2298 
L 2707 2259 
z
" transform="scale(0.015625)"/>
        <path id="Geist-Regular-68" d="M 544 4544 
L 1069 4544 
L 1069 2918 
Q 1210 3194 1482 3331 
Q 1754 3469 2086 3469 
Q 2643 3469 2937 3110 
Q 3232 2752 3232 2182 
L 3232 0 
L 2707 0 
L 2707 1990 
Q 2707 2970 1978 2970 
Q 1555 2970 1312 2714 
Q 1069 2458 1069 1990 
L 1069 0 
L 544 0 
L 544 4544 
z
" transform="scale(0.015625)"/>
        <path id="Geist-Regular-69" d="M 544 3392 
L 1069 3392 
L 1069 0 
L 544 0 
L 544 3392 
z
M 531 3923 
L 531 4531 
L 1082 4531 
L 1082 3923 
L 531 3923 
z
" transform="scale(0.015625)"/>
        <path id="Geist-Regular-6e" d="M 544 3392 
L 1024 3392 
L 1043 2810 
Q 1171 3136 1446 3302 
Q 1722 3469 2086 3469 
Q 2643 3469 2937 3110 
Q 3232 2752 3232 2182 
L 3232 0 
L 2707 0 
L 2707 2029 
Q 2707 3002 1978 3002 
Q 1555 3002 1312 2746 
Q 1069 2490 1069 2029 
L 1069 0 
L 544 0 
L 544 3392 
z
" transform="scale(0.015625)"/>
       </defs>
       <use xlink:href="#Geist-Regular-6d"/>
       <use xlink:href="#Geist-Regular-61" transform="translate(87.899994 0)"/>
       <use xlink:href="#Geist-Regular-63" transform="translate(145.299988 0)"/>
       <use xlink:href="#Geist-Regular-68" transform="translate(200.399979 0)"/>
       <use xlink:href="#Geist-Regular-69" transform="translate(258.799973 0)"/>
       <use xlink:href="#Geist-Regular-6e" transform="translate(283.999969 0)"/>
       <use xlink:href="#Geist-Regular-65" transform="translate(342.399963 0)"/>
       <use xlink:href="#Geist-Regular-73" transform="translate(399.09996 0)"/>
      </g>
     </g>
    </g>
    <g id="xtick_2">
     <g id="line2d_2"/>
     <g id="text_2">
      <!-- Accounting -->
      <g style="fill: #64748b" transform="translate(301.478469 392.436) scale(0.1 -0.1)">
       <defs>
        <path id="Geist-Regular-41" d="M 134 0 
L 1779 4544 
L 2496 4544 
L 4141 0 
L 3552 0 
L 3098 1299 
L 1178 1299 
L 723 0 
L 134 0 
z
M 1363 1824 
L 2912 1824 
L 2138 4070 
L 1363 1824 
z
" transform="scale(0.015625)"/>
        <path id="Geist-Regular-75" d="M 3206 0 
L 2707 0 
L 2707 576 
Q 2579 256 2307 89 
Q 2035 -77 1683 -77 
Q 1139 -77 848 284 
Q 557 646 557 1210 
L 557 3392 
L 1082 3392 
L 1082 1370 
Q 1082 390 1792 390 
Q 2202 390 2442 646 
Q 2682 902 2682 1370 
L 2682 3392 
L 3206 3392 
L 3206 0 
z
" transform="scale(0.015625)"/>
        <path id="Geist-Regular-74" d="M 883 4160 
L 1408 4160 
L 1408 3392 
L 2310 3392 
L 2310 2925 
L 1408 2925 
L 1408 896 
Q 1408 467 1818 467 
L 2304 467 
L 2304 0 
L 1818 0 
Q 1370 0 1126 230 
Q 883 461 883 896 
L 883 2925 
L 384 2925 
L 384 3392 
L 883 3392 
L 883 4160 
z
" transform="scale(0.015625)"/>
        <path id="Geist-Regular-67" d="M 1824 179 
Q 1133 179 717 640 
Q 301 1101 301 1824 
Q 301 2547 723 3008 
Q 1146 3469 1824 3469 
Q 2157 3469 2419 3296 
Q 2682 3123 2797 2848 
L 2797 3392 
L 3302 3392 
L 3302 333 
Q 3302 -320 2896 -678 
Q 2490 -1037 1811 -1037 
Q 1274 -1037 890 -768 
Q 506 -499 397 -51 
L 947 -13 
Q 1165 -538 1811 -538 
Q 2266 -538 2522 -342 
Q 2778 -147 2778 218 
L 2778 781 
Q 2630 493 2371 336 
Q 2112 179 1824 179 
z
M 1113 2650 
Q 851 2330 851 1824 
Q 851 1318 1113 998 
Q 1376 678 1824 678 
Q 2253 678 2515 1001 
Q 2778 1325 2784 1824 
Q 2797 2323 2534 2646 
Q 2272 2970 1824 2970 
Q 1376 2970 1113 2650 
z
" transform="scale(0.015625)"/>
       </defs>
       <use xlink:href="#Geist-Regular-41"/>
       <use xlink:href="#Geist-Regular-63" transform="translate(66.799988 0)"/>
       <use xlink:href="#Geist-Regular-63" transform="translate(121.899979 0)"/>
       <use xlink:href="#Geist-Regular-6f" transform="translate(176.999969 0)"/>
       <use xlink:href="#Geist-Regular-75" transform="translate(234.799957 0)"/>
       <use xlink:href="#Geist-Regular-6e" transform="translate(293.399948 0)"/>
       <use xlink:href="#Geist-Regular-74" transform="translate(351.799942 0)"/>
       <use xlink:href="#Geist-Regular-69" transform="translate(391.699936 0)"/>
       <use xlink:href="#Geist-Regular-6e" transform="translate(416.899933 0)"/>
       <use xlink:href="#Geist-Regular-67" transform="translate(475.299927 0)"/>
      </g>
      <!-- software -->
      <g style="fill: #64748b" transform="translate(306.997219 402.576312) scale(0.1 -0.1)">
       <defs>
        <path id="Geist-Regular-66" d="M 877 3622 
Q 877 4051 1104 4297 
Q 1331 4544 1786 4544 
L 2298 4544 
L 2298 4083 
L 1779 4083 
Q 1613 4083 1507 3958 
Q 1402 3834 1402 3622 
L 1402 3392 
L 2259 3392 
L 2259 2925 
L 1402 2925 
L 1402 0 
L 877 0 
L 877 2925 
L 416 2925 
L 416 3392 
L 877 3392 
L 877 3622 
z
" transform="scale(0.015625)"/>
        <path id="Geist-Regular-77" d="M 2893 3392 
L 3706 582 
L 4525 3392 
L 5088 3392 
L 4038 0 
L 3379 0 
L 2618 2598 
L 1850 0 
L 1190 0 
L 141 3392 
L 704 3392 
L 1523 582 
L 2336 3392 
L 2893 3392 
z
" transform="scale(0.015625)"/>
       </defs>
       <use xlink:href="#Geist-Regular-73"/>
       <use xlink:href="#Geist-Regular-6f" transform="translate(52.899994 0)"/>
       <use xlink:href="#Geist-Regular-66" transform="translate(110.699982 0)"/>
       <use xlink:href="#Geist-Regular-74" transform="translate(150.799973 0)"/>
       <use xlink:href="#Geist-Regular-77" transform="translate(190.699966 0)"/>
       <use xlink:href="#Geist-Regular-61" transform="translate(272.399948 0)"/>
       <use xlink:href="#Geist-Regular-72" transform="translate(329.799942 0)"/>
       <use xlink:href="#Geist-Regular-65" transform="translate(368.299927 0)"/>
      </g>
     </g>
    </g>
    <g id="xtick_3">
     <g id="line2d_3"/>
     <g id="text_3">
      <!-- Commercial -->
      <g style="fill: #64748b" transform="translate(472.968181 392.436) scale(0.1 -0.1)">
       <defs>
        <path id="Geist-Regular-43" d="M 4198 1434 
Q 4070 742 3596 320 
Q 3123 -102 2368 -102 
Q 1414 -102 864 570 
Q 314 1242 314 2266 
Q 314 3296 864 3971 
Q 1414 4646 2368 4646 
Q 3066 4646 3536 4252 
Q 4006 3859 4160 3213 
L 3597 3174 
Q 3482 3610 3165 3866 
Q 2848 4122 2368 4122 
Q 1632 4122 1254 3597 
Q 877 3072 877 2266 
Q 877 1466 1254 944 
Q 1632 422 2368 422 
Q 2874 422 3197 707 
Q 3520 992 3622 1472 
L 4198 1434 
z
" transform="scale(0.015625)"/>
        <path id="Geist-Regular-6c" d="M 557 4544 
L 1082 4544 
L 1082 678 
Q 1082 467 1299 467 
L 1587 467 
L 1587 0 
L 1222 0 
Q 922 0 739 179 
Q 557 358 557 653 
L 557 4544 
z
" transform="scale(0.015625)"/>
       </defs>
       <use xlink:href="#Geist-Regular-43"/>
       <use xlink:href="#Geist-Regular-6f" transform="translate(69.999985 0)"/>
       <use xlink:href="#Geist-Regular-6d" transform="translate(127.799973 0)"/>
       <use xlink:href="#Geist-Regular-6d" transform="translate(215.699966 0)"/>
       <use xlink:href="#Geist-Regular-65" transform="translate(303.59996 0)"/>
       <use xlink:href="#Geist-Regular-72" transform="translate(360.299957 0)"/>
       <use xlink:href="#Geist-Regular-63" transform="translate(398.799942 0)"/>
       <use xlink:href="#Geist-Regular-69" transform="translate(453.899933 0)"/>
       <use xlink:href="#Geist-Regular-61" transform="translate(479.09993 0)"/>
       <use xlink:href="#Geist-Regular-6c" transform="translate(536.499924 0)"/>
      </g>
      <!-- solar -->
      <g style="fill: #64748b" transform="translate(489.463494 402.456) scale(0.1 -0.1)">
       <use xlink:href="#Geist-Regular-73"/>
       <use xlink:href="#Geist-Regular-6f" transform="translate(52.899994 0)"/>
       <use xlink:href="#Geist-Regular-6c" transform="translate(110.699982 0)"/>
       <use xlink:href="#Geist-Regular-61" transform="translate(139.499969 0)"/>
       <use xlink:href="#Geist-Regular-72" transform="translate(196.899963 0)"/>
      </g>
     </g>
    </g>
   </g>
   <g id="matplotlib.axis_2">
    <g id="ytick_1">
     <g id="line2d_4">
      <path d="M 60.12 377.336 
L 596.376 377.336 
" clip-path="url(#pb80eb66a02)" style="fill: none; stroke: #f1f5f9; stroke-opacity: 0.8; stroke-width: 0.75; stroke-linecap: round"/>
     </g>
     <g id="line2d_5"/>
     <g id="text_4">
      <!-- 0.0 -->
      <g style="fill: #64748b" transform="translate(36.92 380.886) scale(0.1 -0.1)">
       <defs>
        <path id="Geist-Regular-30" d="M 3424 538 
Q 2938 -102 2112 -102 
Q 1286 -102 800 538 
Q 314 1178 314 2266 
Q 314 3366 800 4006 
Q 1286 4646 2112 4646 
Q 2938 4646 3424 4006 
Q 3910 3366 3910 2266 
Q 3910 1178 3424 538 
z
M 877 2266 
Q 877 1382 1200 902 
Q 1523 422 2112 422 
Q 2701 422 3024 902 
Q 3347 1382 3347 2266 
Q 3347 3155 3024 3638 
Q 2701 4122 2112 4122 
Q 1523 4122 1200 3638 
Q 877 3155 877 2266 
z
" transform="scale(0.015625)"/>
        <path id="Geist-Regular-2e" d="M 301 685 
L 979 685 
L 979 0 
L 301 0 
L 301 685 
z
" transform="scale(0.015625)"/>
       </defs>
       <use xlink:href="#Geist-Regular-30"/>
       <use xlink:href="#Geist-Regular-2e" transform="translate(65.999985 0)"/>
       <use xlink:href="#Geist-Regular-30" transform="translate(85.999969 0)"/>
      </g>
     </g>
    </g>
    <g id="ytick_2">
     <g id="line2d_6">
      <path d="M 60.12 346.515245 
L 596.376 346.515245 
" clip-path="url(#pb80eb66a02)" style="fill: none; stroke: #f1f5f9; stroke-opacity: 0.8; stroke-width: 0.75; stroke-linecap: round"/>
     </g>
     <g id="line2d_7"/>
     <g id="text_5">
      <!-- 0.5 -->
      <g style="fill: #64748b" transform="translate(37.499688 350.065245) scale(0.1 -0.1)">
       <defs>
        <path id="Geist-Regular-35" d="M 3232 4544 
L 3232 4019 
L 1210 4019 
L 1018 2611 
Q 1178 2803 1459 2915 
Q 1741 3027 2042 3027 
Q 2701 3027 3120 2585 
Q 3539 2144 3539 1459 
Q 3539 774 3091 336 
Q 2643 -102 1958 -102 
Q 1280 -102 822 253 
Q 365 608 314 1165 
L 877 1203 
Q 928 845 1232 633 
Q 1536 422 1958 422 
Q 2413 422 2694 710 
Q 2976 998 2976 1459 
Q 2976 1946 2685 2230 
Q 2394 2515 1901 2515 
Q 1581 2515 1331 2377 
Q 1082 2240 973 1990 
L 390 1990 
L 742 4544 
L 3232 4544 
z
" transform="scale(0.015625)"/>
       </defs>
       <use xlink:href="#Geist-Regular-30"/>
       <use xlink:href="#Geist-Regular-2e" transform="translate(65.999985 0)"/>
       <use xlink:href="#Geist-Regular-35" transform="translate(85.999969 0)"/>
      </g>
     </g>
    </g>
    <g id="ytick_3">
     <g id="line2d_8">
      <path d="M 60.12 315.694491 
L 596.376 315.694491 
" clip-path="url(#pb80eb66a02)" style="fill: none; stroke: #f1f5f9; stroke-opacity: 0.8; stroke-width: 0.75; stroke-linecap: round"/>
     </g>
     <g id="line2d_9"/>
     <g id="text_6">
      <!-- 1.0 -->
      <g style="fill: #64748b" transform="translate(40.040313 319.244491) scale(0.1 -0.1)">
       <defs>
        <path id="Geist-Regular-31" d="M 518 3834 
Q 883 3834 1049 4003 
Q 1216 4173 1216 4544 
L 1638 4544 
L 1638 0 
L 1101 0 
L 1101 3379 
L 160 3379 
L 160 3834 
L 518 3834 
z
" transform="scale(0.015625)"/>
       </defs>
       <use xlink:href="#Geist-Regular-31"/>
       <use xlink:href="#Geist-Regular-2e" transform="translate(34.799988 0)"/>
       <use xlink:href="#Geist-Regular-30" transform="translate(54.799973 0)"/>
      </g>
     </g>
    </g>
    <g id="ytick_4">
     <g id="line2d_10">
      <path d="M 60.12 284.873736 
L 596.376 284.873736 
" clip-path="url(#pb80eb66a02)" style="fill: none; stroke: #f1f5f9; stroke-opacity: 0.8; stroke-width: 0.75; stroke-linecap: round"/>
     </g>
     <g id="line2d_11"/>
     <g id="text_7">
      <!-- 1.5 -->
      <g style="fill: #64748b" transform="translate(40.62 288.423736) scale(0.1 -0.1)">
       <use xlink:href="#Geist-Regular-31"/>
       <use xlink:href="#Geist-Regular-2e" transform="translate(34.799988 0)"/>
       <use xlink:href="#Geist-Regular-35" transform="translate(54.799973 0)"/>
      </g>
     </g>
    </g>
    <g id="ytick_5">
     <g id="line2d_12">
      <path d="M 60.12 254.052981 
L 596.376 254.052981 
" clip-path="url(#pb80eb66a02)" style="fill: none; stroke: #f1f5f9; stroke-opacity: 0.8; stroke-width: 0.75; stroke-linecap: round"/>
     </g>
     <g id="line2d_13"/>
     <g id="text_8">
      <!-- 2.0 -->
      <g style="fill: #64748b" transform="translate(37.560625 257.602981) scale(0.1 -0.1)">
       <defs>
        <path id="Geist-Regular-32" d="M 397 3187 
Q 493 3840 925 4243 
Q 1357 4646 2022 4646 
Q 2643 4646 3052 4278 
Q 3462 3910 3462 3354 
Q 3462 2899 3148 2540 
Q 2835 2182 2253 1824 
Q 1830 1581 1411 1203 
Q 992 826 979 525 
L 3501 525 
L 3501 0 
L 314 0 
Q 314 262 368 499 
Q 422 736 492 909 
Q 563 1082 710 1264 
Q 858 1446 963 1555 
Q 1069 1664 1277 1814 
Q 1485 1965 1590 2035 
Q 1696 2106 1926 2246 
Q 2016 2304 2061 2330 
Q 2899 2861 2899 3354 
Q 2899 3693 2656 3907 
Q 2413 4122 2022 4122 
Q 1606 4122 1328 3869 
Q 1050 3616 960 3149 
L 397 3187 
z
" transform="scale(0.015625)"/>
       </defs>
       <use xlink:href="#Geist-Regular-32"/>
       <use xlink:href="#Geist-Regular-2e" transform="translate(59.599991 0)"/>
       <use xlink:href="#Geist-Regular-30" transform="translate(79.599976 0)"/>
      </g>
     </g>
    </g>
    <g id="ytick_6">
     <g id="line2d_14">
      <path d="M 60.12 223.232226 
L 596.376 223.232226 
" clip-path="url(#pb80eb66a02)" style="fill: none; stroke: #f1f5f9; stroke-opacity: 0.8; stroke-width: 0.75; stroke-linecap: round"/>
     </g>
     <g id="line2d_15"/>
     <g id="text_9">
      <!-- 2.5 -->
      <g style="fill: #64748b" transform="translate(38.140313 226.782226) scale(0.1 -0.1)">
       <use xlink:href="#Geist-Regular-32"/>
       <use xlink:href="#Geist-Regular-2e" transform="translate(59.599991 0)"/>
       <use xlink:href="#Geist-Regular-35" transform="translate(79.599976 0)"/>
      </g>
     </g>
    </g>
    <g id="ytick_7">
     <g id="line2d_16">
      <path d="M 60.12 192.411472 
L 596.376 192.411472 
" clip-path="url(#pb80eb66a02)" style="fill: none; stroke: #f1f5f9; stroke-opacity: 0.8; stroke-width: 0.75; stroke-linecap: round"/>
     </g>
     <g id="line2d_17"/>
     <g id="text_10">
      <!-- 3.0 -->
      <g style="fill: #64748b" transform="translate(37.299688 195.961472) scale(0.1 -0.1)">
       <defs>
        <path id="Geist-Regular-33" d="M 1914 2675 
Q 2298 2669 2586 2864 
Q 2874 3059 2874 3462 
Q 2874 3763 2614 3942 
Q 2355 4122 1914 4122 
Q 1562 4122 1325 3958 
Q 1088 3795 1037 3520 
L 480 3558 
Q 544 4032 947 4339 
Q 1350 4646 1914 4646 
Q 2586 4646 3011 4316 
Q 3437 3987 3437 3462 
Q 3437 2694 2598 2458 
Q 3078 2317 3334 2003 
Q 3590 1690 3590 1248 
Q 3590 653 3120 275 
Q 2650 -102 1914 -102 
Q 1242 -102 794 253 
Q 346 608 314 1165 
L 870 1203 
Q 909 819 1216 620 
Q 1523 422 1914 422 
Q 2374 422 2704 643 
Q 3034 864 3034 1293 
Q 3034 1722 2701 1946 
Q 2368 2170 1914 2157 
L 1562 2150 
L 1562 2682 
L 1914 2675 
z
" transform="scale(0.015625)"/>
       </defs>
       <use xlink:href="#Geist-Regular-33"/>
       <use xlink:href="#Geist-Regular-2e" transform="translate(62.199997 0)"/>
       <use xlink:href="#Geist-Regular-30" transform="translate(82.199982 0)"/>
      </g>
     </g>
    </g>
    <g id="ytick_8">
     <g id="line2d_18">
      <path d="M 60.12 161.590717 
L 596.376 161.590717 
" clip-path="url(#pb80eb66a02)" style="fill: none; stroke: #f1f5f9; stroke-opacity: 0.8; stroke-width: 0.75; stroke-linecap: round"/>
     </g>
     <g id="line2d_19"/>
     <g id="text_11">
      <!-- 3.5 -->
      <g style="fill: #64748b" transform="translate(37.879375 165.140717) scale(0.1 -0.1)">
       <use xlink:href="#Geist-Regular-33"/>
       <use xlink:href="#Geist-Regular-2e" transform="translate(62.199997 0)"/>
       <use xlink:href="#Geist-Regular-35" transform="translate(82.199982 0)"/>
      </g>
     </g>
    </g>
    <g id="ytick_9">
     <g id="line2d_20">
      <path d="M 60.12 130.769962 
L 596.376 130.769962 
" clip-path="url(#pb80eb66a02)" style="fill: none; stroke: #f1f5f9; stroke-opacity: 0.8; stroke-width: 0.75; stroke-linecap: round"/>
     </g>
     <g id="line2d_21"/>
     <g id="text_12">
      <!-- 4.0 -->
      <g style="fill: #64748b" transform="translate(37.679375 134.319962) scale(0.1 -0.1)">
       <defs>
        <path id="Geist-Regular-34" d="M 3053 4544 
L 3053 1459 
L 3578 1459 
L 3578 934 
L 3053 934 
L 3053 0 
L 2515 0 
L 2515 934 
L 160 934 
L 160 1459 
L 2483 4544 
L 3053 4544 
z
M 826 1459 
L 2515 1459 
L 2515 3718 
L 826 1459 
z
" transform="scale(0.015625)"/>
       </defs>
       <use xlink:href="#Geist-Regular-34"/>
       <use xlink:href="#Geist-Regular-2e" transform="translate(58.399994 0)"/>
       <use xlink:href="#Geist-Regular-30" transform="translate(78.399979 0)"/>
      </g>
     </g>
    </g>
    <g id="text_13">
     <!-- Categories covered (of 4) -->
     <g style="fill: #334155" transform="translate(23.299687 307.467719) rotate(-90) scale(0.1 -0.1)">
      <defs>
       <path id="Geist-Medium-43" d="M 4269 1466 
Q 4134 749 3651 323 
Q 3168 -102 2394 -102 
Q 1434 -102 867 573 
Q 301 1248 301 2266 
Q 301 3290 864 3968 
Q 1427 4646 2394 4646 
Q 3117 4646 3597 4246 
Q 4077 3846 4237 3174 
L 3533 3130 
Q 3424 3539 3133 3779 
Q 2842 4019 2394 4019 
Q 1702 4019 1353 3523 
Q 1005 3027 1005 2266 
Q 1005 1510 1357 1017 
Q 1709 525 2394 525 
Q 2861 525 3161 790 
Q 3462 1056 3552 1504 
L 4269 1466 
z
" transform="scale(0.015625)"/>
       <path id="Geist-Medium-61" d="M 346 2381 
Q 448 2893 829 3181 
Q 1210 3469 1786 3469 
Q 2477 3469 2841 3097 
Q 3206 2726 3206 2035 
L 3206 755 
Q 3206 538 3411 538 
L 3552 538 
L 3552 0 
L 3328 0 
Q 2624 -13 2592 518 
Q 2477 262 2192 92 
Q 1907 -77 1510 -77 
Q 986 -77 637 185 
Q 288 448 288 890 
Q 288 1363 598 1574 
Q 909 1786 1568 1914 
L 2541 2106 
Q 2534 2912 1786 2912 
Q 1178 2912 1030 2336 
L 346 2381 
z
M 979 902 
Q 979 704 1148 576 
Q 1318 448 1638 448 
Q 2048 448 2301 733 
Q 2554 1018 2554 1555 
L 2554 1587 
L 1824 1459 
Q 1318 1370 1184 1293 
Q 979 1171 979 902 
z
" transform="scale(0.015625)"/>
       <path id="Geist-Medium-74" d="M 864 4160 
L 1530 4160 
L 1530 3392 
L 2432 3392 
L 2432 2842 
L 1530 2842 
L 1530 966 
Q 1530 550 1926 550 
L 2426 550 
L 2426 0 
L 1869 0 
Q 1382 0 1123 246 
Q 864 493 864 966 
L 864 2842 
L 352 2842 
L 352 3392 
L 864 3392 
L 864 4160 
z
" transform="scale(0.015625)"/>
       <path id="Geist-Medium-65" d="M 726 403 
Q 288 883 288 1696 
Q 288 2509 726 2989 
Q 1165 3469 1894 3469 
Q 2534 3469 2963 3030 
Q 3392 2592 3418 1734 
L 3424 1504 
L 986 1504 
Q 1024 1024 1257 761 
Q 1491 499 1894 499 
Q 2150 499 2361 636 
Q 2573 774 2675 1018 
L 3373 966 
Q 3226 493 2819 208 
Q 2413 -77 1894 -77 
Q 1165 -77 726 403 
z
M 998 2016 
L 2720 2016 
Q 2656 2477 2432 2685 
Q 2208 2893 1894 2893 
Q 1523 2893 1292 2662 
Q 1062 2432 998 2016 
z
" transform="scale(0.015625)"/>
       <path id="Geist-Medium-67" d="M 1805 173 
Q 1114 173 701 627 
Q 288 1082 288 1811 
Q 288 2541 707 3005 
Q 1126 3469 1805 3469 
Q 2131 3469 2390 3305 
Q 2650 3142 2765 2867 
L 2765 3392 
L 3405 3392 
L 3405 352 
Q 3405 -307 2979 -672 
Q 2554 -1037 1850 -1037 
Q 1299 -1037 902 -771 
Q 506 -506 378 -58 
L 1069 -13 
Q 1274 -474 1856 -474 
Q 2272 -474 2505 -291 
Q 2739 -109 2739 237 
L 2739 736 
Q 2598 467 2342 320 
Q 2086 173 1805 173 
z
M 1219 2588 
Q 979 2291 979 1811 
Q 979 1331 1219 1033 
Q 1459 736 1869 736 
Q 2272 736 2512 1033 
Q 2752 1331 2758 1811 
Q 2765 2291 2521 2588 
Q 2278 2886 1868 2886 
Q 1459 2886 1219 2588 
z
" transform="scale(0.015625)"/>
       <path id="Geist-Medium-6f" d="M 3062 403 
Q 2624 -77 1894 -77 
Q 1165 -77 726 403 
Q 288 883 288 1696 
Q 288 2509 726 2989 
Q 1165 3469 1894 3469 
Q 2624 3469 3062 2989 
Q 3501 2509 3501 1696 
Q 3501 883 3062 403 
z
M 1219 2569 
Q 979 2253 979 1696 
Q 979 1139 1219 822 
Q 1459 506 1894 506 
Q 2330 506 2570 822 
Q 2810 1139 2810 1696 
Q 2810 2253 2570 2569 
Q 2330 2886 1894 2886 
Q 1459 2886 1219 2569 
z
" transform="scale(0.015625)"/>
       <path id="Geist-Medium-72" d="M 512 3392 
L 1120 3392 
L 1139 2752 
Q 1299 3392 1946 3392 
L 2272 3392 
L 2272 2842 
L 1939 2842 
Q 1178 2842 1178 1984 
L 1178 0 
L 512 0 
L 512 3392 
z
" transform="scale(0.015625)"/>
       <path id="Geist-Medium-69" d="M 512 3392 
L 1178 3392 
L 1178 0 
L 512 0 
L 512 3392 
z
M 506 3898 
L 506 4544 
L 1197 4544 
L 1197 3898 
L 506 3898 
z
" transform="scale(0.015625)"/>
       <path id="Geist-Medium-73" d="M 2451 2330 
Q 2400 2592 2179 2749 
Q 1958 2906 1683 2906 
Q 1414 2906 1235 2774 
Q 1056 2643 1062 2426 
Q 1062 2067 1811 1926 
Q 2509 1798 2851 1574 
Q 3194 1350 3194 883 
Q 3194 416 2790 169 
Q 2387 -77 1818 -77 
Q 1171 -77 748 233 
Q 326 544 288 1069 
L 973 1114 
Q 1024 826 1241 659 
Q 1459 493 1811 493 
Q 2080 493 2291 595 
Q 2502 698 2502 909 
Q 2502 986 2480 1046 
Q 2458 1107 2400 1155 
Q 2342 1203 2304 1235 
Q 2266 1267 2163 1296 
Q 2061 1325 2022 1337 
Q 1984 1350 1853 1376 
Q 1722 1402 1696 1408 
Q 1446 1459 1283 1507 
Q 1120 1555 931 1635 
Q 742 1715 630 1814 
Q 518 1914 444 2061 
Q 371 2208 371 2400 
Q 371 2893 742 3181 
Q 1114 3469 1741 3469 
Q 2285 3469 2669 3168 
Q 3053 2867 3136 2368 
L 2451 2330 
z
" transform="scale(0.015625)"/>
       <path id="Geist-Medium-20" transform="scale(0.015625)"/>
       <path id="Geist-Medium-63" d="M 2682 2208 
Q 2637 2522 2413 2704 
Q 2189 2886 1894 2886 
Q 1459 2886 1219 2569 
Q 979 2253 979 1696 
Q 979 1139 1219 822 
Q 1459 506 1894 506 
Q 2208 506 2432 701 
Q 2656 896 2707 1242 
L 3405 1203 
Q 3322 621 2902 272 
Q 2483 -77 1894 -77 
Q 1165 -77 726 403 
Q 288 883 288 1696 
Q 288 2509 726 2989 
Q 1165 3469 1894 3469 
Q 2470 3469 2889 3136 
Q 3309 2803 3373 2246 
L 2682 2208 
z
" transform="scale(0.015625)"/>
       <path id="Geist-Medium-76" d="M 3398 3392 
L 2157 0 
L 1382 0 
L 141 3392 
L 826 3392 
L 1773 685 
L 2714 3392 
L 3398 3392 
z
" transform="scale(0.015625)"/>
       <path id="Geist-Medium-64" d="M 3418 4544 
L 3418 0 
L 2797 0 
L 2778 474 
Q 2483 -77 1722 -77 
Q 1030 -77 659 428 
Q 288 934 288 1696 
Q 288 2458 659 2963 
Q 1030 3469 1722 3469 
Q 2451 3469 2752 2950 
L 2752 4544 
L 3418 4544 
z
M 979 1696 
Q 979 1197 1206 851 
Q 1434 506 1888 506 
Q 2349 506 2576 848 
Q 2803 1190 2803 1696 
Q 2803 2214 2576 2560 
Q 2349 2906 1888 2906 
Q 1427 2906 1203 2560 
Q 979 2214 979 1696 
z
" transform="scale(0.015625)"/>
       <path id="Geist-Medium-28" d="M 1779 4800 
Q 166 2048 1779 -704 
L 1171 -704 
Q 282 627 282 2048 
Q 282 3469 1171 4800 
L 1779 4800 
z
" transform="scale(0.015625)"/>
       <path id="Geist-Medium-66" d="M 851 3552 
Q 851 4026 1097 4285 
Q 1344 4544 1843 4544 
L 2413 4544 
L 2413 3994 
L 1888 3994 
Q 1722 3994 1619 3875 
Q 1517 3757 1517 3552 
L 1517 3354 
L 2368 3354 
L 2368 2803 
L 1517 2803 
L 1517 0 
L 851 0 
L 851 2803 
L 384 2803 
L 384 3354 
L 851 3354 
L 851 3552 
z
" transform="scale(0.015625)"/>
       <path id="Geist-Medium-34" d="M 3174 4544 
L 3174 1523 
L 3686 1523 
L 3686 896 
L 3174 896 
L 3174 0 
L 2496 0 
L 2496 896 
L 166 896 
L 166 1523 
L 2419 4544 
L 3174 4544 
z
M 960 1523 
L 2496 1523 
L 2496 3578 
L 960 1523 
z
" transform="scale(0.015625)"/>
       <path id="Geist-Medium-29" d="M 896 4800 
Q 1786 3469 1786 2048 
Q 1786 627 896 -704 
L 288 -704 
Q 1901 2048 288 4800 
L 896 4800 
z
" transform="scale(0.015625)"/>
      </defs>
      <use xlink:href="#Geist-Medium-43"/>
      <use xlink:href="#Geist-Medium-61" transform="translate(70.899994 0)"/>
      <use xlink:href="#Geist-Medium-74" transform="translate(129.699982 0)"/>
      <use xlink:href="#Geist-Medium-65" transform="translate(171.299973 0)"/>
      <use xlink:href="#Geist-Medium-67" transform="translate(229.299957 0)"/>
      <use xlink:href="#Geist-Medium-6f" transform="translate(290.599945 0)"/>
      <use xlink:href="#Geist-Medium-72" transform="translate(349.799942 0)"/>
      <use xlink:href="#Geist-Medium-69" transform="translate(389.799927 0)"/>
      <use xlink:href="#Geist-Medium-65" transform="translate(416.299911 0)"/>
      <use xlink:href="#Geist-Medium-73" transform="translate(474.299896 0)"/>
      <use xlink:href="#Geist-Medium-20" transform="translate(528.69989 0)"/>
      <use xlink:href="#Geist-Medium-63" transform="translate(553.099884 0)"/>
      <use xlink:href="#Geist-Medium-6f" transform="translate(609.799881 0)"/>
      <use xlink:href="#Geist-Medium-76" transform="translate(668.999878 0)"/>
      <use xlink:href="#Geist-Medium-65" transform="translate(724.299866 0)"/>
      <use xlink:href="#Geist-Medium-72" transform="translate(782.29985 0)"/>
      <use xlink:href="#Geist-Medium-65" transform="translate(822.299835 0)"/>
      <use xlink:href="#Geist-Medium-64" transform="translate(880.29982 0)"/>
      <use xlink:href="#Geist-Medium-20" transform="translate(941.699814 0)"/>
      <use xlink:href="#Geist-Medium-28" transform="translate(966.099808 0)"/>
      <use xlink:href="#Geist-Medium-6f" transform="translate(998.399796 0)"/>
      <use xlink:href="#Geist-Medium-66" transform="translate(1057.599792 0)"/>
      <use xlink:href="#Geist-Medium-20" transform="translate(1099.299789 0)"/>
      <use xlink:href="#Geist-Medium-34" transform="translate(1123.699783 0)"/>
      <use xlink:href="#Geist-Medium-29" transform="translate(1183.89978 0)"/>
     </g>
    </g>
   </g>
   <g id="patch_3">
    <path d="M 103.798916 377.336 
L 118.50271 377.336 
C 121.750982 377.336 124.384227 374.751604 124.384227 371.563591 
L 124.384227 321.4669 
C 124.384227 318.278886 121.750982 315.694491 118.50271 315.694491 
L 103.798916 315.694491 
C 100.550644 315.694491 97.917399 318.278886 97.917399 321.4669 
L 97.917399 371.563591 
C 97.917399 374.751604 100.550644 377.336 103.798916 377.336 
z
" clip-path="url(#pb80eb66a02)" style="fill: #94a3b8"/>
   </g>
   <g id="patch_4">
    <path d="M 276.784723 377.336 
L 291.488516 377.336 
C 294.736789 377.336 297.370034 374.751604 297.370034 371.563591 
L 297.370034 321.4669 
C 297.370034 318.278886 294.736789 315.694491 291.488516 315.694491 
L 276.784723 315.694491 
C 273.53645 315.694491 270.903205 318.278886 270.903205 321.4669 
L 270.903205 371.563591 
C 270.903205 374.751604 273.53645 377.336 276.784723 377.336 
z
" clip-path="url(#pb80eb66a02)" style="fill: #94a3b8"/>
   </g>
   <g id="patch_5">
    <path d="M 449.770529 377.336 
L 464.474323 377.336 
C 467.722595 377.336 470.35584 377.336 470.35584 377.336 
L 470.35584 377.336 
C 470.35584 377.336 467.722595 377.336 464.474323 377.336 
L 449.770529 377.336 
C 446.522257 377.336 443.889012 377.336 443.889012 377.336 
L 443.889012 377.336 
C 443.889012 377.336 446.522257 377.336 449.770529 377.336 
z
" clip-path="url(#pb80eb66a02)" style="fill: #94a3b8"/>
   </g>
   <g id="patch_6">
    <path d="M 133.206503 377.336 
L 147.910297 377.336 
C 151.158569 377.336 153.791814 374.751604 153.791814 371.563591 
L 153.791814 198.183881 
C 153.791814 194.995867 151.158569 192.411472 147.910297 192.411472 
L 133.206503 192.411472 
C 129.958231 192.411472 127.324986 194.995867 127.324986 198.183881 
L 127.324986 371.563591 
C 127.324986 374.751604 129.958231 377.336 133.206503 377.336 
z
" clip-path="url(#pb80eb66a02)" style="fill: #3b82f6"/>
   </g>
   <g id="patch_7">
    <path d="M 306.19231 377.336 
L 320.896103 377.336 
C 324.144376 377.336 326.777621 374.751604 326.777621 371.563591 
L 326.777621 198.183881 
C 326.777621 194.995867 324.144376 192.411472 320.896103 192.411472 
L 306.19231 192.411472 
C 302.944037 192.411472 300.310792 194.995867 300.310792 198.183881 
L 300.310792 371.563591 
C 300.310792 374.751604 302.944037 377.336 306.19231 377.336 
z
" clip-path="url(#pb80eb66a02)" style="fill: #3b82f6"/>
   </g>
   <g id="patch_8">
    <path d="M 479.178116 377.336 
L 493.88191 377.336 
C 497.130182 377.336 499.763427 374.751604 499.763427 371.563591 
L 499.763427 259.82539 
C 499.763427 256.637377 497.130182 254.052981 493.88191 254.052981 
L 479.178116 254.052981 
C 475.929844 254.052981 473.296599 256.637377 473.296599 259.82539 
L 473.296599 371.563591 
C 473.296599 374.751604 475.929844 377.336 479.178116 377.336 
z
" clip-path="url(#pb80eb66a02)" style="fill: #3b82f6"/>
   </g>
   <g id="patch_9">
    <path d="M 162.61409 377.336 
L 177.317884 377.336 
C 180.566156 377.336 183.199401 374.751604 183.199401 371.563591 
L 183.199401 198.183881 
C 183.199401 194.995867 180.566156 192.411472 177.317884 192.411472 
L 162.61409 192.411472 
C 159.365818 192.411472 156.732573 194.995867 156.732573 198.183881 
L 156.732573 371.563591 
C 156.732573 374.751604 159.365818 377.336 162.61409 377.336 
z
" clip-path="url(#pb80eb66a02)" style="fill: #1d4ed8"/>
   </g>
   <g id="patch_10">
    <path d="M 335.599897 377.336 
L 350.30369 377.336 
C 353.551963 377.336 356.185208 374.751604 356.185208 371.563591 
L 356.185208 136.542371 
C 356.185208 133.354358 353.551963 130.769962 350.30369 130.769962 
L 335.599897 130.769962 
C 332.351624 130.769962 329.718379 133.354358 329.718379 136.542371 
L 329.718379 371.563591 
C 329.718379 374.751604 332.351624 377.336 335.599897 377.336 
z
" clip-path="url(#pb80eb66a02)" style="fill: #1d4ed8"/>
   </g>
   <g id="patch_11">
    <path d="M 508.585703 377.336 
L 523.289497 377.336 
C 526.537769 377.336 529.171014 374.751604 529.171014 371.563591 
L 529.171014 321.4669 
C 529.171014 318.278886 526.537769 315.694491 523.289497 315.694491 
L 508.585703 315.694491 
C 505.337431 315.694491 502.704186 318.278886 502.704186 321.4669 
L 502.704186 371.563591 
C 502.704186 374.751604 505.337431 377.336 508.585703 377.336 
z
" clip-path="url(#pb80eb66a02)" style="fill: #1d4ed8"/>
   </g>
   <g id="patch_12">
    <path d="M 192.021677 377.336 
L 206.725471 377.336 
C 209.973743 377.336 212.606988 374.751604 212.606988 371.563591 
L 212.606988 259.82539 
C 212.606988 256.637377 209.973743 254.052981 206.725471 254.052981 
L 192.021677 254.052981 
C 188.773405 254.052981 186.14016 256.637377 186.14016 259.82539 
L 186.14016 371.563591 
C 186.14016 374.751604 188.773405 377.336 192.021677 377.336 
z
" clip-path="url(#pb80eb66a02)" style="fill: #f97316"/>
   </g>
   <g id="patch_13">
    <path d="M 365.007484 377.336 
L 379.711277 377.336 
C 382.95955 377.336 385.592795 374.751604 385.592795 371.563591 
L 385.592795 321.4669 
C 385.592795 318.278886 382.95955 315.694491 379.711277 315.694491 
L 365.007484 315.694491 
C 361.759211 315.694491 359.125966 318.278886 359.125966 321.4669 
L 359.125966 371.563591 
C 359.125966 374.751604 361.759211 377.336 365.007484 377.336 
z
" clip-path="url(#pb80eb66a02)" style="fill: #f97316"/>
   </g>
   <g id="patch_14">
    <path d="M 537.99329 377.336 
L 552.697084 377.336 
C 555.945356 377.336 558.578601 374.751604 558.578601 371.563591 
L 558.578601 321.4669 
C 558.578601 318.278886 555.945356 315.694491 552.697084 315.694491 
L 537.99329 315.694491 
C 534.745018 315.694491 532.111773 318.278886 532.111773 321.4669 
L 532.111773 371.563591 
C 532.111773 374.751604 534.745018 377.336 537.99329 377.336 
z
" clip-path="url(#pb80eb66a02)" style="fill: #f97316"/>
   </g>
   <g id="legend_1">
    <g id="patch_15">
     <path d="M 16.2 90.306 
L 32.2 90.306 
L 32.2 77.456 
L 16.2 77.456 
z
" style="fill: #94a3b8"/>
    </g>
    <g id="text_14">
     <!-- Baseline (search @50) -->
     <g style="fill: #09090b" transform="translate(36.2 87.156) scale(0.1 -0.1)">
      <defs>
       <path id="Geist-Regular-42" d="M 589 0 
L 589 4544 
L 2144 4544 
Q 3750 4544 3750 3290 
Q 3750 2906 3539 2659 
Q 3328 2413 2957 2342 
Q 3418 2278 3680 2000 
Q 3942 1722 3942 1280 
Q 3942 659 3542 329 
Q 3142 0 2400 0 
L 589 0 
z
M 1126 525 
L 2400 525 
Q 2874 525 3130 720 
Q 3386 915 3386 1280 
Q 3386 1645 3126 1846 
Q 2867 2048 2400 2048 
L 1126 2048 
L 1126 525 
z
M 1126 2573 
L 2144 2573 
Q 2650 2573 2922 2758 
Q 3194 2944 3194 3290 
Q 3194 4019 2144 4019 
L 1126 4019 
L 1126 2573 
z
" transform="scale(0.015625)"/>
       <path id="Geist-Regular-20" transform="scale(0.015625)"/>
       <path id="Geist-Regular-28" d="M 1670 4800 
Q 58 2048 1670 -704 
L 1178 -704 
Q 301 627 301 2048 
Q 301 3469 1178 4800 
L 1670 4800 
z
" transform="scale(0.015625)"/>
       <path id="Geist-Regular-40" d="M 3757 3136 
L 4211 3136 
L 4096 1664 
Q 4058 1242 4141 1120 
Q 4288 890 4550 998 
Q 4864 1126 5011 1587 
Q 5082 1811 5088 2080 
Q 5114 2912 4547 3501 
Q 3981 4090 3142 4090 
Q 2176 4090 1488 3462 
Q 800 2835 768 1920 
Q 736 1075 1158 528 
Q 1581 -19 2301 -131 
Q 3021 -243 3962 77 
L 4070 -358 
Q 3283 -672 2588 -624 
Q 1894 -576 1379 -278 
Q 864 19 576 598 
Q 288 1178 314 1920 
Q 352 3021 1177 3782 
Q 2003 4544 3155 4544 
Q 4192 4544 4883 3840 
Q 5574 3136 5542 2112 
Q 5510 1107 4928 704 
Q 4525 429 4109 570 
Q 3750 691 3680 1037 
Q 3674 1069 3674 1101 
Q 3565 858 3264 688 
Q 2963 518 2630 518 
Q 2048 518 1757 908 
Q 1466 1299 1530 1856 
Q 1594 2419 1946 2806 
Q 2298 3194 2880 3194 
Q 3174 3194 3398 3082 
Q 3622 2970 3725 2778 
L 3757 3136 
z
M 2016 1856 
Q 1978 1446 2160 1171 
Q 2342 896 2758 896 
Q 3168 896 3401 1174 
Q 3635 1453 3680 1850 
Q 3718 2266 3532 2547 
Q 3347 2829 2938 2829 
Q 2522 2829 2291 2553 
Q 2061 2278 2016 1856 
z
" transform="scale(0.015625)"/>
       <path id="Geist-Regular-29" d="M 794 4800 
Q 1670 3469 1670 2048 
Q 1670 627 794 -704 
L 301 -704 
Q 1914 2048 301 4800 
L 794 4800 
z
" transform="scale(0.015625)"/>
      </defs>
      <use xlink:href="#Geist-Regular-42"/>
      <use xlink:href="#Geist-Regular-61" transform="translate(67.799988 0)"/>
      <use xlink:href="#Geist-Regular-73" transform="translate(125.199982 0)"/>
      <use xlink:href="#Geist-Regular-65" transform="translate(178.099976 0)"/>
      <use xlink:href="#Geist-Regular-6c" transform="translate(234.799973 0)"/>
      <use xlink:href="#Geist-Regular-69" transform="translate(263.59996 0)"/>
      <use xlink:href="#Geist-Regular-6e" transform="translate(288.799957 0)"/>
      <use xlink:href="#Geist-Regular-65" transform="translate(347.199951 0)"/>
      <use xlink:href="#Geist-Regular-20" transform="translate(403.899948 0)"/>
      <use xlink:href="#Geist-Regular-28" transform="translate(428.899933 0)"/>
      <use xlink:href="#Geist-Regular-73" transform="translate(459.699921 0)"/>
      <use xlink:href="#Geist-Regular-65" transform="translate(512.599915 0)"/>
      <use xlink:href="#Geist-Regular-61" transform="translate(569.299911 0)"/>
      <use xlink:href="#Geist-Regular-72" transform="translate(626.699905 0)"/>
      <use xlink:href="#Geist-Regular-63" transform="translate(665.19989 0)"/>
      <use xlink:href="#Geist-Regular-68" transform="translate(720.299881 0)"/>
      <use xlink:href="#Geist-Regular-20" transform="translate(778.699875 0)"/>
      <use xlink:href="#Geist-Regular-40" transform="translate(803.69986 0)"/>
      <use xlink:href="#Geist-Regular-35" transform="translate(895.199844 0)"/>
      <use xlink:href="#Geist-Regular-30" transform="translate(955.399841 0)"/>
      <use xlink:href="#Geist-Regular-29" transform="translate(1021.399826 0)"/>
     </g>
    </g>
    <g id="patch_16">
     <path d="M 16.2 108.156 
L 32.2 108.156 
L 32.2 95.306 
L 16.2 95.306 
z
" style="fill: #3b82f6"/>
    </g>
    <g id="text_15">
     <!-- Candidate: fixed operators (no LLM) -->
     <g style="fill: #09090b" transform="translate(36.2 105.006) scale(0.1 -0.1)">
      <defs>
       <path id="Geist-Regular-64" d="M 3309 4544 
L 3309 0 
L 2835 0 
L 2816 499 
Q 2509 -77 1734 -77 
Q 1037 -77 669 432 
Q 301 941 301 1696 
Q 301 2451 669 2960 
Q 1037 3469 1734 3469 
Q 2483 3469 2784 2931 
L 2784 4544 
L 3309 4544 
z
M 851 1696 
Q 851 1152 1097 787 
Q 1344 422 1843 422 
Q 2336 422 2582 793 
Q 2829 1165 2829 1696 
Q 2829 2246 2582 2617 
Q 2336 2989 1843 2989 
Q 1344 2989 1097 2621 
Q 851 2253 851 1696 
z
" transform="scale(0.015625)"/>
       <path id="Geist-Regular-3a" d="M 589 685 
L 1267 685 
L 1267 0 
L 589 0 
L 589 685 
z
M 589 2266 
L 589 2950 
L 1267 2950 
L 1267 2266 
L 589 2266 
z
" transform="scale(0.015625)"/>
       <path id="Geist-Regular-78" d="M 2726 3392 
L 3373 3392 
L 2202 1734 
L 3430 0 
L 2790 0 
L 1869 1331 
L 941 0 
L 301 0 
L 1542 1741 
L 365 3392 
L 1005 3392 
L 1869 2138 
L 2726 3392 
z
" transform="scale(0.015625)"/>
       <path id="Geist-Regular-4c" d="M 589 0 
L 589 4544 
L 1126 4544 
L 1126 525 
L 3405 525 
L 3405 0 
L 589 0 
z
" transform="scale(0.015625)"/>
       <path id="Geist-Regular-4d" d="M 589 4544 
L 1338 4544 
L 2803 589 
L 4269 4544 
L 5018 4544 
L 5018 0 
L 4480 0 
L 4480 3475 
L 3162 0 
L 2445 0 
L 1126 3475 
L 1126 0 
L 589 0 
L 589 4544 
z
" transform="scale(0.015625)"/>
      </defs>
      <use xlink:href="#Geist-Regular-43"/>
      <use xlink:href="#Geist-Regular-61" transform="translate(69.999985 0)"/>
      <use xlink:href="#Geist-Regular-6e" transform="translate(127.399979 0)"/>
      <use xlink:href="#Geist-Regular-64" transform="translate(185.799973 0)"/>
      <use xlink:href="#Geist-Regular-69" transform="translate(245.999969 0)"/>
      <use xlink:href="#Geist-Regular-64" transform="translate(271.199966 0)"/>
      <use xlink:href="#Geist-Regular-61" transform="translate(331.399963 0)"/>
      <use xlink:href="#Geist-Regular-74" transform="translate(388.799957 0)"/>
      <use xlink:href="#Geist-Regular-65" transform="translate(428.699951 0)"/>
      <use xlink:href="#Geist-Regular-3a" transform="translate(485.399948 0)"/>
      <use xlink:href="#Geist-Regular-20" transform="translate(514.399933 0)"/>
      <use xlink:href="#Geist-Regular-66" transform="translate(539.399918 0)"/>
      <use xlink:href="#Geist-Regular-69" transform="translate(579.499908 0)"/>
      <use xlink:href="#Geist-Regular-78" transform="translate(604.699905 0)"/>
      <use xlink:href="#Geist-Regular-65" transform="translate(663.099899 0)"/>
      <use xlink:href="#Geist-Regular-64" transform="translate(719.799896 0)"/>
      <use xlink:href="#Geist-Regular-20" transform="translate(779.999893 0)"/>
      <use xlink:href="#Geist-Regular-6f" transform="translate(804.999878 0)"/>
      <use xlink:href="#Geist-Regular-70" transform="translate(862.799866 0)"/>
      <use xlink:href="#Geist-Regular-65" transform="translate(922.999863 0)"/>
      <use xlink:href="#Geist-Regular-72" transform="translate(979.69986 0)"/>
      <use xlink:href="#Geist-Regular-61" transform="translate(1018.199844 0)"/>
      <use xlink:href="#Geist-Regular-74" transform="translate(1075.599838 0)"/>
      <use xlink:href="#Geist-Regular-6f" transform="translate(1115.499832 0)"/>
      <use xlink:href="#Geist-Regular-72" transform="translate(1173.29982 0)"/>
      <use xlink:href="#Geist-Regular-73" transform="translate(1211.799805 0)"/>
      <use xlink:href="#Geist-Regular-20" transform="translate(1264.699799 0)"/>
      <use xlink:href="#Geist-Regular-28" transform="translate(1289.699783 0)"/>
      <use xlink:href="#Geist-Regular-6e" transform="translate(1320.499771 0)"/>
      <use xlink:href="#Geist-Regular-6f" transform="translate(1378.899765 0)"/>
      <use xlink:href="#Geist-Regular-20" transform="translate(1436.699753 0)"/>
      <use xlink:href="#Geist-Regular-4c" transform="translate(1461.699738 0)"/>
      <use xlink:href="#Geist-Regular-4c" transform="translate(1519.599731 0)"/>
      <use xlink:href="#Geist-Regular-4d" transform="translate(1577.499725 0)"/>
      <use xlink:href="#Geist-Regular-29" transform="translate(1665.099716 0)"/>
     </g>
    </g>
    <g id="patch_17">
     <path d="M 215.796875 90.306 
L 231.796875 90.306 
L 231.796875 77.456 
L 215.796875 77.456 
z
" style="fill: #1d4ed8"/>
    </g>
    <g id="text_16">
     <!-- Candidate: LLM-written operators -->
     <g style="fill: #09090b" transform="translate(235.796875 87.156) scale(0.1 -0.1)">
      <defs>
       <path id="Geist-Regular-2d" d="M 301 2106 
L 2413 2106 
L 2413 1619 
L 301 1619 
L 301 2106 
z
" transform="scale(0.015625)"/>
      </defs>
      <use xlink:href="#Geist-Regular-43"/>
      <use xlink:href="#Geist-Regular-61" transform="translate(69.999985 0)"/>
      <use xlink:href="#Geist-Regular-6e" transform="translate(127.399979 0)"/>
      <use xlink:href="#Geist-Regular-64" transform="translate(185.799973 0)"/>
      <use xlink:href="#Geist-Regular-69" transform="translate(245.999969 0)"/>
      <use xlink:href="#Geist-Regular-64" transform="translate(271.199966 0)"/>
      <use xlink:href="#Geist-Regular-61" transform="translate(331.399963 0)"/>
      <use xlink:href="#Geist-Regular-74" transform="translate(388.799957 0)"/>
      <use xlink:href="#Geist-Regular-65" transform="translate(428.699951 0)"/>
      <use xlink:href="#Geist-Regular-3a" transform="translate(485.399948 0)"/>
      <use xlink:href="#Geist-Regular-20" transform="translate(514.399933 0)"/>
      <use xlink:href="#Geist-Regular-4c" transform="translate(539.399918 0)"/>
      <use xlink:href="#Geist-Regular-4c" transform="translate(597.299911 0)"/>
      <use xlink:href="#Geist-Regular-4d" transform="translate(655.199905 0)"/>
      <use xlink:href="#Geist-Regular-2d" transform="translate(742.799896 0)"/>
      <use xlink:href="#Geist-Regular-77" transform="translate(785.19989 0)"/>
      <use xlink:href="#Geist-Regular-72" transform="translate(866.899872 0)"/>
      <use xlink:href="#Geist-Regular-69" transform="translate(905.399857 0)"/>
      <use xlink:href="#Geist-Regular-74" transform="translate(930.599854 0)"/>
      <use xlink:href="#Geist-Regular-74" transform="translate(970.499847 0)"/>
      <use xlink:href="#Geist-Regular-65" transform="translate(1010.399841 0)"/>
      <use xlink:href="#Geist-Regular-6e" transform="translate(1067.099838 0)"/>
      <use xlink:href="#Geist-Regular-20" transform="translate(1125.499832 0)"/>
      <use xlink:href="#Geist-Regular-6f" transform="translate(1150.499817 0)"/>
      <use xlink:href="#Geist-Regular-70" transform="translate(1208.299805 0)"/>
      <use xlink:href="#Geist-Regular-65" transform="translate(1268.499802 0)"/>
      <use xlink:href="#Geist-Regular-72" transform="translate(1325.199799 0)"/>
      <use xlink:href="#Geist-Regular-61" transform="translate(1363.699783 0)"/>
      <use xlink:href="#Geist-Regular-74" transform="translate(1421.099777 0)"/>
      <use xlink:href="#Geist-Regular-6f" transform="translate(1460.999771 0)"/>
      <use xlink:href="#Geist-Regular-72" transform="translate(1518.799759 0)"/>
      <use xlink:href="#Geist-Regular-73" transform="translate(1557.299744 0)"/>
     </g>
    </g>
    <g id="patch_18">
     <path d="M 406.826563 90.306 
L 422.826563 90.306 
L 422.826563 77.456 
L 406.826563 77.456 
z
" style="fill: #f97316"/>
    </g>
    <g id="text_17">
     <!-- Ember (current) -->
     <g style="fill: #09090b" transform="translate(426.826563 87.156) scale(0.1 -0.1)">
      <defs>
       <path id="Geist-Regular-62" d="M 544 4544 
L 1069 4544 
L 1069 2931 
Q 1370 3469 2118 3469 
Q 2816 3469 3184 2960 
Q 3552 2451 3552 1696 
Q 3552 941 3184 432 
Q 2816 -77 2118 -77 
Q 1344 -77 1037 499 
L 1018 0 
L 544 0 
L 544 4544 
z
M 1024 1696 
Q 1024 1165 1270 793 
Q 1517 422 2010 422 
Q 2509 422 2755 787 
Q 3002 1152 3002 1696 
Q 3002 2253 2755 2621 
Q 2509 2989 2010 2989 
Q 1517 2989 1270 2617 
Q 1024 2246 1024 1696 
z
" transform="scale(0.015625)"/>
      </defs>
      <use xlink:href="#Geist-Regular-45"/>
      <use xlink:href="#Geist-Regular-6d" transform="translate(60.199997 0)"/>
      <use xlink:href="#Geist-Regular-62" transform="translate(148.099991 0)"/>
      <use xlink:href="#Geist-Regular-65" transform="translate(208.299988 0)"/>
      <use xlink:href="#Geist-Regular-72" transform="translate(264.999985 0)"/>
      <use xlink:href="#Geist-Regular-20" transform="translate(303.499969 0)"/>
      <use xlink:href="#Geist-Regular-28" transform="translate(328.499954 0)"/>
      <use xlink:href="#Geist-Regular-63" transform="translate(359.299942 0)"/>
      <use xlink:href="#Geist-Regular-75" transform="translate(414.399933 0)"/>
      <use xlink:href="#Geist-Regular-72" transform="translate(472.999924 0)"/>
      <use xlink:href="#Geist-Regular-72" transform="translate(511.499908 0)"/>
      <use xlink:href="#Geist-Regular-65" transform="translate(549.999893 0)"/>
      <use xlink:href="#Geist-Regular-6e" transform="translate(606.69989 0)"/>
      <use xlink:href="#Geist-Regular-74" transform="translate(665.099884 0)"/>
      <use xlink:href="#Geist-Regular-29" transform="translate(704.999878 0)"/>
     </g>
    </g>
   </g>
  </g>
  <g id="text_18">
   <!-- Long-tail category coverage -->
   <g style="fill: #09090b" transform="translate(7.2 18.56) scale(0.16 -0.16)">
    <defs>
     <path id="Geist-SemiBold-4c" d="M 525 0 
L 525 4544 
L 1331 4544 
L 1331 710 
L 3494 710 
L 3494 0 
L 525 0 
z
" transform="scale(0.015625)"/>
     <path id="Geist-SemiBold-6f" d="M 3142 406 
Q 2688 -77 1933 -77 
Q 1178 -77 723 406 
Q 269 890 269 1696 
Q 269 2502 723 2985 
Q 1178 3469 1933 3469 
Q 2688 3469 3142 2985 
Q 3597 2502 3597 1696 
Q 3597 890 3142 406 
z
M 1309 2521 
Q 1088 2227 1088 1696 
Q 1088 1165 1309 870 
Q 1530 576 1933 576 
Q 2336 576 2557 870 
Q 2778 1165 2778 1696 
Q 2778 2227 2557 2521 
Q 2336 2816 1933 2816 
Q 1530 2816 1309 2521 
z
" transform="scale(0.015625)"/>
     <path id="Geist-SemiBold-6e" d="M 480 3392 
L 1197 3392 
L 1222 2835 
Q 1478 3469 2240 3469 
Q 2790 3469 3094 3117 
Q 3398 2765 3398 2182 
L 3398 0 
L 2605 0 
L 2605 1933 
Q 2605 2381 2467 2601 
Q 2330 2822 2010 2822 
Q 1664 2822 1469 2592 
Q 1274 2362 1274 1933 
L 1274 0 
L 480 0 
L 480 3392 
z
" transform="scale(0.015625)"/>
     <path id="Geist-SemiBold-67" d="M 1779 166 
Q 1094 166 681 617 
Q 269 1069 269 1792 
Q 269 2534 685 3001 
Q 1101 3469 1779 3469 
Q 2106 3469 2358 3309 
Q 2611 3149 2739 2874 
L 2739 3392 
L 3514 3392 
L 3514 378 
Q 3514 -282 3069 -659 
Q 2624 -1037 1894 -1037 
Q 1325 -1037 912 -771 
Q 499 -506 365 -64 
L 1178 -13 
Q 1363 -422 1901 -422 
Q 2291 -422 2502 -246 
Q 2714 -70 2714 269 
L 2714 710 
Q 2573 448 2317 307 
Q 2061 166 1779 166 
z
M 1088 1798 
Q 1088 1344 1315 1056 
Q 1542 768 1920 768 
Q 2291 768 2512 1056 
Q 2733 1344 2739 1798 
Q 2746 2253 2522 2537 
Q 2298 2822 1920 2822 
Q 1536 2822 1312 2540 
Q 1088 2259 1088 1798 
z
" transform="scale(0.015625)"/>
     <path id="Geist-SemiBold-2d" d="M 269 2208 
L 2438 2208 
L 2438 1536 
L 269 1536 
L 269 2208 
z
" transform="scale(0.015625)"/>
     <path id="Geist-SemiBold-74" d="M 851 4160 
L 1645 4160 
L 1645 3392 
L 2541 3392 
L 2541 2771 
L 1645 2771 
L 1645 1030 
Q 1645 627 2029 627 
L 2541 627 
L 2541 0 
L 1907 0 
Q 851 0 851 1030 
L 851 2771 
L 320 2771 
L 320 3392 
L 851 3392 
L 851 4160 
z
" transform="scale(0.015625)"/>
     <path id="Geist-SemiBold-61" d="M 326 2362 
Q 429 2886 819 3177 
Q 1210 3469 1824 3469 
Q 2554 3469 2931 3097 
Q 3309 2726 3309 2016 
L 3309 832 
Q 3309 698 3360 643 
Q 3411 589 3520 589 
L 3648 589 
L 3648 0 
L 3450 -6 
Q 3302 -6 3203 3 
Q 3104 13 2953 57 
Q 2803 102 2716 220 
Q 2630 339 2611 518 
Q 2483 256 2195 89 
Q 1907 -77 1491 -77 
Q 966 -77 617 185 
Q 269 448 269 890 
Q 269 1357 582 1574 
Q 896 1792 1555 1920 
L 2509 2112 
Q 2502 2880 1824 2880 
Q 1267 2880 1139 2317 
L 326 2362 
z
M 1088 915 
Q 1088 730 1245 611 
Q 1402 493 1696 493 
Q 2067 493 2294 758 
Q 2522 1024 2522 1523 
L 2522 1555 
L 1869 1440 
Q 1664 1402 1609 1389 
Q 1555 1376 1414 1334 
Q 1274 1293 1229 1248 
Q 1184 1203 1136 1116 
Q 1088 1030 1088 915 
z
" transform="scale(0.015625)"/>
     <path id="Geist-SemiBold-69" d="M 480 3392 
L 1274 3392 
L 1274 0 
L 480 0 
L 480 3392 
z
M 467 3872 
L 467 4544 
L 1293 4544 
L 1293 3872 
L 467 3872 
z
" transform="scale(0.015625)"/>
     <path id="Geist-SemiBold-6c" d="M 525 4544 
L 1318 4544 
L 1318 864 
Q 1318 627 1555 627 
L 1824 627 
L 1824 0 
L 1357 0 
Q 979 0 752 224 
Q 525 448 525 832 
L 525 4544 
z
" transform="scale(0.015625)"/>
     <path id="Geist-SemiBold-20" transform="scale(0.015625)"/>
     <path id="Geist-SemiBold-63" d="M 2669 2157 
Q 2624 2464 2419 2640 
Q 2214 2816 1933 2816 
Q 1530 2816 1309 2521 
Q 1088 2227 1088 1696 
Q 1088 1165 1309 870 
Q 1530 576 1933 576 
Q 2227 576 2435 758 
Q 2643 941 2694 1280 
L 3514 1242 
Q 3443 640 3001 281 
Q 2560 -77 1933 -77 
Q 1178 -77 723 406 
Q 269 890 269 1696 
Q 269 2502 723 2985 
Q 1178 3469 1933 3469 
Q 2547 3469 2985 3123 
Q 3424 2778 3488 2202 
L 2669 2157 
z
" transform="scale(0.015625)"/>
     <path id="Geist-SemiBold-65" d="M 729 406 
Q 275 890 275 1696 
Q 275 2502 729 2985 
Q 1184 3469 1939 3469 
Q 2618 3469 3059 3011 
Q 3501 2554 3520 1690 
L 3520 1478 
L 1107 1478 
Q 1139 1043 1353 803 
Q 1568 563 1939 563 
Q 2176 563 2371 691 
Q 2566 819 2662 1037 
L 3475 979 
Q 3322 493 2902 208 
Q 2483 -77 1939 -77 
Q 1184 -77 729 406 
z
M 1114 2022 
L 2701 2022 
Q 2650 2445 2445 2640 
Q 2240 2835 1939 2835 
Q 1600 2835 1382 2620 
Q 1165 2406 1114 2022 
z
" transform="scale(0.015625)"/>
     <path id="Geist-SemiBold-72" d="M 480 3392 
L 1222 3392 
L 1242 2739 
Q 1414 3392 2048 3392 
L 2368 3392 
L 2368 2771 
L 2048 2771 
Q 1645 2771 1459 2566 
Q 1274 2362 1274 1946 
L 1274 0 
L 480 0 
L 480 3392 
z
" transform="scale(0.015625)"/>
     <path id="Geist-SemiBold-79" d="M 141 3392 
L 922 3392 
L 1830 832 
L 2714 3392 
L 3494 3392 
L 2144 -365 
Q 1933 -960 1280 -960 
L 762 -960 
L 762 -346 
L 1146 -346 
Q 1414 -346 1498 -122 
L 1600 128 
L 1363 128 
L 141 3392 
z
" transform="scale(0.015625)"/>
     <path id="Geist-SemiBold-76" d="M 3514 3392 
L 2266 0 
L 1389 0 
L 141 3392 
L 928 3392 
L 1824 806 
L 2720 3392 
L 3514 3392 
z
" transform="scale(0.015625)"/>
    </defs>
    <use xlink:href="#Geist-SemiBold-4c"/>
    <use xlink:href="#Geist-SemiBold-6f" transform="translate(58.599991 0)"/>
    <use xlink:href="#Geist-SemiBold-6e" transform="translate(119.099976 0)"/>
    <use xlink:href="#Geist-SemiBold-67" transform="translate(179.199966 0)"/>
    <use xlink:href="#Geist-SemiBold-2d" transform="translate(241.59996 0)"/>
    <use xlink:href="#Geist-SemiBold-74" transform="translate(283.999954 0)"/>
    <use xlink:href="#Geist-SemiBold-61" transform="translate(327.099945 0)"/>
    <use xlink:href="#Geist-SemiBold-69" transform="translate(387.199936 0)"/>
    <use xlink:href="#Geist-SemiBold-6c" transform="translate(414.699921 0)"/>
    <use xlink:href="#Geist-SemiBold-20" transform="translate(446.799911 0)"/>
    <use xlink:href="#Geist-SemiBold-63" transform="translate(470.599899 0)"/>
    <use xlink:href="#Geist-SemiBold-61" transform="translate(528.799896 0)"/>
    <use xlink:href="#Geist-SemiBold-74" transform="translate(588.899887 0)"/>
    <use xlink:href="#Geist-SemiBold-65" transform="translate(631.999878 0)"/>
    <use xlink:href="#Geist-SemiBold-67" transform="translate(691.399872 0)"/>
    <use xlink:href="#Geist-SemiBold-6f" transform="translate(753.799866 0)"/>
    <use xlink:href="#Geist-SemiBold-72" transform="translate(814.29985 0)"/>
    <use xlink:href="#Geist-SemiBold-79" transform="translate(855.599838 0)"/>
    <use xlink:href="#Geist-SemiBold-20" transform="translate(912.299835 0)"/>
    <use xlink:href="#Geist-SemiBold-63" transform="translate(936.099823 0)"/>
    <use xlink:href="#Geist-SemiBold-6f" transform="translate(994.29982 0)"/>
    <use xlink:href="#Geist-SemiBold-76" transform="translate(1054.799805 0)"/>
    <use xlink:href="#Geist-SemiBold-65" transform="translate(1111.799789 0)"/>
    <use xlink:href="#Geist-SemiBold-72" transform="translate(1171.199783 0)"/>
    <use xlink:href="#Geist-SemiBold-61" transform="translate(1212.499771 0)"/>
    <use xlink:href="#Geist-SemiBold-67" transform="translate(1272.599762 0)"/>
    <use xlink:href="#Geist-SemiBold-65" transform="translate(1334.999756 0)"/>
   </g>
  </g>
  <g id="text_19">
   <!-- How many of {trade_pub, regional_press, community_forum, niche_forum} each method surfaced (max 4). -->
   <g style="fill: #64748b" transform="translate(7.2 40.8944) scale(0.12 -0.12)">
    <defs>
     <path id="Geist-Regular-48" d="M 589 0 
L 589 4544 
L 1126 4544 
L 1126 2554 
L 3366 2554 
L 3366 4544 
L 3904 4544 
L 3904 0 
L 3366 0 
L 3366 2029 
L 1126 2029 
L 1126 0 
L 589 0 
z
" transform="scale(0.015625)"/>
     <path id="Geist-Regular-79" d="M 141 3392 
L 704 3392 
L 1734 563 
L 2726 3392 
L 3283 3392 
L 1907 -429 
Q 1722 -960 1152 -960 
L 749 -960 
L 749 -493 
L 1101 -493 
Q 1350 -493 1440 -250 
L 1562 64 
L 1382 64 
L 141 3392 
z
" transform="scale(0.015625)"/>
     <path id="Geist-Regular-7b" d="M 301 2291 
Q 589 2278 777 2528 
Q 966 2778 966 3168 
L 966 3699 
Q 966 4186 1286 4493 
Q 1606 4800 2112 4800 
L 2394 4800 
L 2394 4314 
Q 1888 4326 1673 4188 
Q 1459 4051 1459 3712 
L 1459 3123 
Q 1459 2694 1244 2403 
Q 1030 2112 685 2042 
L 685 2035 
Q 1037 1971 1248 1673 
Q 1459 1376 1459 941 
L 1459 352 
Q 1459 13 1676 -124 
Q 1894 -262 2394 -243 
L 2394 -736 
L 2112 -736 
Q 1606 -736 1286 -429 
Q 966 -122 966 365 
L 966 902 
Q 966 1293 777 1539 
Q 589 1786 301 1773 
L 301 2291 
z
" transform="scale(0.015625)"/>
     <path id="Geist-Regular-5f" d="M 301 -282 
L 3296 -282 
L 3296 -768 
L 301 -768 
L 301 -282 
z
" transform="scale(0.015625)"/>
     <path id="Geist-Regular-2c" d="M 979 0 
L 621 -979 
L 314 -979 
L 557 0 
L 301 0 
L 301 685 
L 979 685 
L 979 0 
z
" transform="scale(0.015625)"/>
     <path id="Geist-Regular-7d" d="M 2394 1773 
Q 2106 1786 1917 1539 
Q 1728 1293 1728 902 
L 1728 365 
Q 1728 -122 1408 -429 
Q 1088 -736 582 -736 
L 301 -736 
L 301 -243 
Q 800 -262 1017 -124 
Q 1235 13 1235 352 
L 1235 941 
Q 1235 1376 1446 1673 
Q 1658 1971 2010 2035 
L 2010 2042 
Q 1664 2112 1449 2403 
Q 1235 2694 1235 3123 
L 1235 3712 
Q 1235 4051 1020 4188 
Q 806 4326 301 4314 
L 301 4800 
L 582 4800 
Q 1088 4800 1408 4493 
Q 1728 4186 1728 3699 
L 1728 3168 
Q 1728 2778 1917 2528 
Q 2106 2278 2394 2291 
L 2394 1773 
z
" transform="scale(0.015625)"/>
    </defs>
    <use xlink:href="#Geist-Regular-48"/>
    <use xlink:href="#Geist-Regular-6f" transform="translate(70.199982 0)"/>
    <use xlink:href="#Geist-Regular-77" transform="translate(127.999969 0)"/>
    <use xlink:href="#Geist-Regular-20" transform="translate(209.699951 0)"/>
    <use xlink:href="#Geist-Regular-6d" transform="translate(234.699936 0)"/>
    <use xlink:href="#Geist-Regular-61" transform="translate(322.59993 0)"/>
    <use xlink:href="#Geist-Regular-6e" transform="translate(379.999924 0)"/>
    <use xlink:href="#Geist-Regular-79" transform="translate(438.399918 0)"/>
    <use xlink:href="#Geist-Regular-20" transform="translate(491.899902 0)"/>
    <use xlink:href="#Geist-Regular-6f" transform="translate(516.899887 0)"/>
    <use xlink:href="#Geist-Regular-66" transform="translate(574.699875 0)"/>
    <use xlink:href="#Geist-Regular-20" transform="translate(614.799866 0)"/>
    <use xlink:href="#Geist-Regular-7b" transform="translate(639.79985 0)"/>
    <use xlink:href="#Geist-Regular-74" transform="translate(681.899841 0)"/>
    <use xlink:href="#Geist-Regular-72" transform="translate(721.799835 0)"/>
    <use xlink:href="#Geist-Regular-61" transform="translate(760.29982 0)"/>
    <use xlink:href="#Geist-Regular-64" transform="translate(817.699814 0)"/>
    <use xlink:href="#Geist-Regular-65" transform="translate(877.899811 0)"/>
    <use xlink:href="#Geist-Regular-5f" transform="translate(934.599808 0)"/>
    <use xlink:href="#Geist-Regular-70" transform="translate(990.799805 0)"/>
    <use xlink:href="#Geist-Regular-75" transform="translate(1050.999802 0)"/>
    <use xlink:href="#Geist-Regular-62" transform="translate(1109.599792 0)"/>
    <use xlink:href="#Geist-Regular-2c" transform="translate(1169.799789 0)"/>
    <use xlink:href="#Geist-Regular-20" transform="translate(1189.799774 0)"/>
    <use xlink:href="#Geist-Regular-72" transform="translate(1214.799759 0)"/>
    <use xlink:href="#Geist-Regular-65" transform="translate(1253.299744 0)"/>
    <use xlink:href="#Geist-Regular-67" transform="translate(1309.999741 0)"/>
    <use xlink:href="#Geist-Regular-69" transform="translate(1370.099731 0)"/>
    <use xlink:href="#Geist-Regular-6f" transform="translate(1395.299728 0)"/>
    <use xlink:href="#Geist-Regular-6e" transform="translate(1453.099716 0)"/>
    <use xlink:href="#Geist-Regular-61" transform="translate(1511.49971 0)"/>
    <use xlink:href="#Geist-Regular-6c" transform="translate(1568.899704 0)"/>
    <use xlink:href="#Geist-Regular-5f" transform="translate(1597.699692 0)"/>
    <use xlink:href="#Geist-Regular-70" transform="translate(1653.899689 0)"/>
    <use xlink:href="#Geist-Regular-72" transform="translate(1714.099686 0)"/>
    <use xlink:href="#Geist-Regular-65" transform="translate(1752.59967 0)"/>
    <use xlink:href="#Geist-Regular-73" transform="translate(1809.299667 0)"/>
    <use xlink:href="#Geist-Regular-73" transform="translate(1862.199661 0)"/>
    <use xlink:href="#Geist-Regular-2c" transform="translate(1915.099655 0)"/>
    <use xlink:href="#Geist-Regular-20" transform="translate(1935.09964 0)"/>
    <use xlink:href="#Geist-Regular-63" transform="translate(1960.099625 0)"/>
    <use xlink:href="#Geist-Regular-6f" transform="translate(2015.199615 0)"/>
    <use xlink:href="#Geist-Regular-6d" transform="translate(2072.999603 0)"/>
    <use xlink:href="#Geist-Regular-6d" transform="translate(2160.899597 0)"/>
    <use xlink:href="#Geist-Regular-75" transform="translate(2248.799591 0)"/>
    <use xlink:href="#Geist-Regular-6e" transform="translate(2307.399582 0)"/>
    <use xlink:href="#Geist-Regular-69" transform="translate(2365.799576 0)"/>
    <use xlink:href="#Geist-Regular-74" transform="translate(2390.999573 0)"/>
    <use xlink:href="#Geist-Regular-79" transform="translate(2430.899567 0)"/>
    <use xlink:href="#Geist-Regular-5f" transform="translate(2484.399551 0)"/>
    <use xlink:href="#Geist-Regular-66" transform="translate(2540.599548 0)"/>
    <use xlink:href="#Geist-Regular-6f" transform="translate(2580.699539 0)"/>
    <use xlink:href="#Geist-Regular-72" transform="translate(2638.499527 0)"/>
    <use xlink:href="#Geist-Regular-75" transform="translate(2676.999512 0)"/>
    <use xlink:href="#Geist-Regular-6d" transform="translate(2735.599503 0)"/>
    <use xlink:href="#Geist-Regular-2c" transform="translate(2823.499496 0)"/>
    <use xlink:href="#Geist-Regular-20" transform="translate(2843.499481 0)"/>
    <use xlink:href="#Geist-Regular-6e" transform="translate(2868.499466 0)"/>
    <use xlink:href="#Geist-Regular-69" transform="translate(2926.89946 0)"/>
    <use xlink:href="#Geist-Regular-63" transform="translate(2952.099457 0)"/>
    <use xlink:href="#Geist-Regular-68" transform="translate(3007.199448 0)"/>
    <use xlink:href="#Geist-Regular-65" transform="translate(3065.599442 0)"/>
    <use xlink:href="#Geist-Regular-5f" transform="translate(3122.299438 0)"/>
    <use xlink:href="#Geist-Regular-66" transform="translate(3178.499435 0)"/>
    <use xlink:href="#Geist-Regular-6f" transform="translate(3218.599426 0)"/>
    <use xlink:href="#Geist-Regular-72" transform="translate(3276.399414 0)"/>
    <use xlink:href="#Geist-Regular-75" transform="translate(3314.899399 0)"/>
    <use xlink:href="#Geist-Regular-6d" transform="translate(3373.49939 0)"/>
    <use xlink:href="#Geist-Regular-7d" transform="translate(3461.399384 0)"/>
    <use xlink:href="#Geist-Regular-20" transform="translate(3503.499374 0)"/>
    <use xlink:href="#Geist-Regular-65" transform="translate(3528.499359 0)"/>
    <use xlink:href="#Geist-Regular-61" transform="translate(3585.199356 0)"/>
    <use xlink:href="#Geist-Regular-63" transform="translate(3642.59935 0)"/>
    <use xlink:href="#Geist-Regular-68" transform="translate(3697.699341 0)"/>
    <use xlink:href="#Geist-Regular-20" transform="translate(3756.099335 0)"/>
    <use xlink:href="#Geist-Regular-6d" transform="translate(3781.099319 0)"/>
    <use xlink:href="#Geist-Regular-65" transform="translate(3868.999313 0)"/>
    <use xlink:href="#Geist-Regular-74" transform="translate(3925.69931 0)"/>
    <use xlink:href="#Geist-Regular-68" transform="translate(3965.599304 0)"/>
    <use xlink:href="#Geist-Regular-6f" transform="translate(4023.999298 0)"/>
    <use xlink:href="#Geist-Regular-64" transform="translate(4081.799286 0)"/>
    <use xlink:href="#Geist-Regular-20" transform="translate(4141.999283 0)"/>
    <use xlink:href="#Geist-Regular-73" transform="translate(4166.999268 0)"/>
    <use xlink:href="#Geist-Regular-75" transform="translate(4219.899261 0)"/>
    <use xlink:href="#Geist-Regular-72" transform="translate(4278.499252 0)"/>
    <use xlink:href="#Geist-Regular-66" transform="translate(4316.999237 0)"/>
    <use xlink:href="#Geist-Regular-61" transform="translate(4357.099228 0)"/>
    <use xlink:href="#Geist-Regular-63" transform="translate(4414.499222 0)"/>
    <use xlink:href="#Geist-Regular-65" transform="translate(4469.599213 0)"/>
    <use xlink:href="#Geist-Regular-64" transform="translate(4526.29921 0)"/>
    <use xlink:href="#Geist-Regular-20" transform="translate(4586.499207 0)"/>
    <use xlink:href="#Geist-Regular-28" transform="translate(4611.499191 0)"/>
    <use xlink:href="#Geist-Regular-6d" transform="translate(4642.299179 0)"/>
    <use xlink:href="#Geist-Regular-61" transform="translate(4730.199173 0)"/>
    <use xlink:href="#Geist-Regular-78" transform="translate(4787.599167 0)"/>
    <use xlink:href="#Geist-Regular-20" transform="translate(4845.999161 0)"/>
    <use xlink:href="#Geist-Regular-34" transform="translate(4870.999146 0)"/>
    <use xlink:href="#Geist-Regular-29" transform="translate(4929.399139 0)"/>
    <use xlink:href="#Geist-Regular-2e" transform="translate(4960.199127 0)"/>
   </g>
  </g>
 </g>
 <defs>
  <clipPath id="pb80eb66a02">
   <rect x="60.12" y="115.976" width="536.256" height="261.36"/>
  </clipPath>
 </defs>
</svg>
